#!OML:ASF H:\LiuWeirdWalks\Patient Classification 1\Patient 1\Session 1\male.ASF
:FULLY-SPECIFIED
:DEGREES
159
root 0.199356 17.053 4.80962 2.62098 15.2255 -11.5163
lowerback 4.94714 2.53077 5.86665
upperback 0.643595 3.71491 1.14465
thorax -1.81133 1.81857 -2.3305
lowerneck -17.9909 -2.31019 1.64349
upperneck 6.04741 -3.09902 -3.19554
head 4.62132 -1.6953 -1.54078
rclavicle -2.64384e-014 6.36111e-015
rhumerus -32.6493 6.53191 -86.6875
rradius 29.9434
rwrist -6.68378
rhand -14.1098 -3.65395
rfingers 7.12502
rthumb 12.0233 -33.2886
lclavicle -2.64384e-014 6.36111e-015
lhumerus -49.9331 2.65846 80.0371
lradius 35.8527
lwrist 8.08922
lhand -11.5276 0.371733
lfingers 7.12502
lthumb 14.5122 29.8442
rfemur 14.199 0.497248 37.4929
rtibia 9.59681
rfoot -16.9387 -29.8902
rtoes 0.379785
lfemur -47.4795 -4.52391 -4.62919
ltibia 30.675
lfoot -10.7113 9.07894
ltoes -17.8173
160
root 0.232584 16.9913 5.02106 2.9299 15.4746 -11.4807
lowerback 4.79285 2.60099 5.82022
upperback 0.5314 3.79518 0.969769
thorax -1.82543 1.85586 -2.48382
lowerneck -18.0489 -2.42742 1.47912
upperneck 6.01711 -3.2341 -3.04118
head 4.62224 -1.75513 -1.4786
rclavicle 7.59357e-014 -8.74653e-015
rhumerus -32.4254 6.42303 -86.8381
rradius 29.7427
rwrist -6.47944
rhand -14.2377 -3.68191
rfingers 7.12502
rthumb 11.8999 -33.3237
lclavicle 7.59357e-014 -8.74653e-015
lhumerus -49.9241 2.5998 79.8576
lradius 36.088
lwrist 7.94236
lhand -10.9895 0.186335
lfingers 7.12502
lthumb 15.0306 29.6208
rfemur 15.4697 0.22691 37.5425
rtibia 7.93374
rfoot -16.5881 -29.7902
rtoes -0.00183212
lfemur -48.2366 -4.68325 -4.61935
ltibia 31.5415
lfoot -10.5456 8.68192
ltoes -17.7974
161
root 0.267377 16.9268 5.23397 3.24023 15.6915 -11.4356
lowerback 4.66552 2.68213 5.77429
upperback 0.40835 3.89226 0.784378
thorax -1.86324 1.90056 -2.65069
lowerneck -18.1052 -2.55368 1.29495
upperneck 5.9845 -3.37919 -2.86061
head 4.62313 -1.81847 -1.40598
rclavicle -8.18993e-014 6.36111e-015
rhumerus -32.2611 6.3329 -87.0129
rradius 29.6067
rwrist -6.34494
rhand -14.375 -3.70813
rfingers 7.12502
rthumb 11.7675 -33.3576
lclavicle -8.18993e-014 6.36111e-015
lhumerus -49.9558 2.51975 79.6806
lradius 36.4765
lwrist 7.90113
lhand -10.4826 0.103086
lfingers 7.12502
lthumb 15.5188 29.5003
rfemur 16.8983 -0.0116726 37.5728
rtibia 5.9836
rfoot -16.0388 -29.6541
rtoes -0.447191
lfemur -48.9882 -4.83261 -4.61456
ltibia 32.6641
lfoot -10.2249 8.25766
ltoes -17.8426
162
root 0.303318 16.8606 5.44788 3.55051 15.8813 -11.3588
lowerback 4.56814 2.77244 5.7073
upperback 0.291952 4.00187 0.580774
thorax -1.9094 1.95146 -2.82654
lowerneck -18.1565 -2.68879 1.09313
upperneck 5.9044 -3.5357 -2.64656
head 4.60951 -1.88534 -1.32047
rclavicle 1.33186e-014 -2.38542e-015
rhumerus -32.1307 6.25829 -87.2097
rradius 29.5415
rwrist -6.28052
rhand -14.5162 -3.71483
rfingers 7.12502
rthumb 11.6313 -33.372
lclavicle 1.33186e-014 -2.38542e-015
lhumerus -49.9815 2.43225 79.4992
lradius 36.9991
lwrist 7.96969
lhand -10.033 0.121535
lfingers 7.12502
lthumb 15.9519 29.4847
rfemur 18.7247 -0.227506 37.5559
rtibia 3.28265
rfoot -15.0317 -29.4036
rtoes -0.979351
lfemur -49.7483 -4.94023 -4.66528
ltibia 34.051
lfoot -9.67157 7.76346
ltoes -17.9422
163
root 0.340038 16.7945 5.66213 3.85978 16.0568 -11.2411
lowerback 4.51719 2.86579 5.61014
upperback 0.182664 4.11636 0.358402
thorax -1.97392 2.00454 -3.00766
lowerneck -18.2104 -2.82783 0.887415
upperneck 5.79744 -3.69943 -2.40311
head 4.58899 -1.9537 -1.22557
rclavicle -2.3059e-014 -8.74653e-015
rhumerus -32.0241 6.20007 -87.4277
rradius 29.5399
rwrist -6.27837
rhand -14.6597 -3.7083
rfingers 7.12502
rthumb 11.493 -33.3732
lclavicle -2.3059e-014 -8.74653e-015
lhumerus -50.0043 2.3414 79.3152
lradius 37.6648
lwrist 8.16116
lhand -9.66672 0.215308
lfingers 7.12502
lthumb 16.3046 29.5499
rfemur 20.862 -0.43445 37.482
rtibia 3.81667e-014
rfoot -13.6638 -29.0522
rtoes -1.58767
lfemur -50.5416 -4.97374 -4.81181
ltibia 35.7096
lfoot -8.92986 7.1455
ltoes -18.1228
164
root 0.377316 16.729 5.87625 4.15922 16.2079 -11.0823
lowerback 4.52379 2.96224 5.47806
upperback 0.0802582 4.23592 0.114562
thorax -2.06342 2.05978 -3.19516
lowerneck -18.2621 -2.96882 0.689416
upperneck 5.6558 -3.86982 -2.13463
head 4.5582 -2.0233 -1.12428
rclavicle -2.84262e-014 3.10104e-014
rhumerus -31.942 6.19069 -87.6841
rradius 29.6021
rwrist -6.36929
rhand -14.7904 -3.72687
rfingers 7.12502
rthumb 11.3669 -33.3988
lclavicle -2.84262e-014 3.10104e-014
lhumerus -50.0131 2.26144 79.1122
lradius 38.4529
lwrist 8.47368
lhand -9.38935 0.414092
lfingers 7.12502
lthumb 16.5716 29.7265
rfemur 21.3872 -0.632848 37.402
rtibia -2.22639e-014
rfoot -14.0259 -29.1984
rtoes -2.25657
lfemur -51.3797 -4.925 -5.05506
ltibia 37.6436
lfoot -8.13695 6.44006
ltoes -18.3908
165
root 0.414579 16.6645 6.09027 4.44901 16.3427 -10.8754
lowerback 4.59639 3.05941 5.29812
upperback -0.0223319 4.35689 -0.14895
thorax -2.19141 2.115 -3.38107
lowerneck -18.2939 -3.11927 0.472501
upperneck 5.47699 -4.05276 -1.81952
head 4.51467 -2.09624 -1.00581
rclavicle 4.77083e-015 1.51076e-014
rhumerus -31.9067 6.23618 -87.9804
rradius 29.7283
rwrist -6.52993
rhand -14.9351 -3.74172
rfingers 7.12502
rthumb 11.2273 -33.4213
lclavicle 4.77083e-015 1.51076e-014
lhumerus -50.0159 2.20266 78.8847
lradius 39.349
lwrist 8.90919
lhand -9.20794 0.634877
lfingers 7.12502
lthumb 16.7463 29.9326
rfemur 21.94 -0.829391 37.2811
rtibia -5.08889e-014
rfoot -14.3061 -29.3526
rtoes -2.95555
lfemur -52.2759 -4.77217 -5.41891
ltibia 39.8349
lfoot -7.46833 5.66939
ltoes -18.5948
166
root 0.452291 16.6003 6.30446 4.72707 16.4635 -10.6309
lowerback 4.73625 3.1537 5.08674
upperback -0.118987 4.47442 -0.430485
thorax -2.35182 2.168 -3.57287
lowerneck -18.3318 -3.25957 0.291137
upperneck 5.21966 -4.22886 -1.51015
head 4.44773 -2.16535 -0.893318
rclavicle -6.36111e-015 7.15625e-015
rhumerus -31.894 6.34236 -88.3125
rradius 29.912
rwrist -6.74562
rhand -15.0765 -3.75901
rfingers 7.12502
rthumb 11.091 -33.4459
lclavicle -6.36111e-015 7.15625e-015
lhumerus -49.9882 2.17085 78.6321
lradius 40.3318
lwrist 9.46475
lhand -9.13324 0.865441
lfingers 7.12502
lthumb 16.8182 30.1571
rfemur 22.5209 -1.02569 37.1285
rtibia 2.22639e-014
rfoot -14.4733 -29.5194
rtoes -3.65729
lfemur -53.2274 -4.5334 -5.87977
ltibia 42.2388
lfoot -7.08353 4.91741
ltoes -18.6211
167
root 0.490412 16.5353 6.51934 4.98585 16.5531 -10.3759
lowerback 4.92982 3.25776 4.87035
upperback -0.213159 4.60535 -0.726903
thorax -2.53732 2.22707 -3.78257
lowerneck -18.3911 -3.40762 0.10282
upperneck 4.95175 -4.41532 -1.16829
head 4.38249 -2.23765 -0.770908
rclavicle 5.42682e-014 -7.95139e-015
rhumerus -31.9288 6.4842 -88.6813
rradius 30.1597
rwrist -6.99852
rhand -15.2055 -3.78216
rfingers 7.12502
rthumb 10.9665 -33.4757
lclavicle 5.42682e-014 -7.95139e-015
lhumerus -49.9408 2.129 78.367
lradius 41.4046
lwrist 10.1427
lhand -9.17222 1.10931
lfingers 7.12502
lthumb 16.7807 30.4041
rfemur 23.1327 -1.20413 36.9701
rtibia -9.85972e-014
rfoot -14.5211 -29.69
rtoes -4.33021
lfemur -54.2009 -4.22165 -6.38147
ltibia 44.7752
lfoot -7.01142 4.26585
ltoes -18.4674
168
root 0.529703 16.4687 6.73546 5.23051 16.611 -10.1435
lowerback 5.13494 3.36923 4.68742
upperback -0.290062 4.74623 -1.02477
thorax -2.70727 2.29157 -4.01436
lowerneck -18.5082 -3.56168 -0.10128
upperneck 4.68351 -4.60636 -0.800708
head 4.328 -2.31084 -0.63967
rclavicle -4.17448e-015 -2.22639e-014
rhumerus -31.9759 6.69855 -89.0791
rradius 30.4618
rwrist -7.29566
rhand -15.3476 -3.79475
rfingers 7.12502
rthumb 10.8295 -33.4955
lclavicle -4.17448e-015 -2.22639e-014
lhumerus -49.8417 2.08881 78.1044
lradius 42.5491
lwrist 10.958
lhand -9.32364 1.31935
lfingers 7.12502
lthumb 16.6349 30.6265
rfemur 23.7637 -1.35691 36.8362
rtibia 8.26944e-014
rfoot -14.423 -29.8606
rtoes -4.98394
lfemur -55.1665 -3.85682 -6.86616
ltibia 47.3372
lfoot -7.18075 3.75353
ltoes -18.2123
169
root 0.57063 16.401 6.95417 5.45345 16.6232 -9.97469
lowerback 5.32079 3.49554 4.57323
upperback -0.360355 4.90877 -1.31271
thorax -2.85198 2.36686 -4.27511
lowerneck -18.6283 -3.72368 -0.331165
upperneck 4.41192 -4.80334 -0.398271
head 4.27555 -2.38517 -0.494305
rclavicle 8.54774e-015 4.77083e-015
rhumerus -32.0718 7.00897 -89.5177
rradius 30.8249
rwrist -7.64649
rhand -15.5156 -3.81854
rfingers 7.12502
rthumb 10.6674 -33.5278
lclavicle 8.54774e-015 4.77083e-015
lhumerus -49.7183 2.03278 77.8511
lradius 43.7595
lwrist 11.8807
lhand -9.59577 1.55106
lfingers 7.12502
lthumb 16.3729 30.88
rfemur 24.4128 -1.4661 36.7655
rtibia -2.54444e-014
rfoot -14.1731 -30.0181
rtoes -5.60339
lfemur -56.0623 -3.46077 -7.25969
ltibia 49.8098
lfoot -7.44462 3.38098
ltoes -17.8543
